  <svg width="168" height="28" viewBox="0 0 168 28" fill="none" xmlns="http://www.w3.org/2000/svg">
                        <path d="M37.5722 16.5691C37.5722 18.6232 37.9765 20.2074 38.785 21.3218C39.6153 22.4144 40.8827 22.9607 42.5871 22.9607C43.3301 22.9607 44.0621 22.8733 44.7832 22.6985C45.5043 22.5236 46.3674 22.2177 47.3726 21.7807L48.3231 24.2062C47.2524 24.6869 46.2363 25.0366 45.2749 25.2551C44.3134 25.4736 43.3847 25.5828 42.4888 25.5828C39.9103 25.5828 37.9546 24.7743 36.6217 23.1573C35.2888 21.5403 34.6223 19.3443 34.6223 16.5691V11.6526C34.6223 8.87743 35.2888 6.68137 36.6217 5.06436C37.9546 3.44736 39.9103 2.63885 42.4888 2.63885C43.3847 2.63885 44.3134 2.74811 45.2749 2.96663C46.2582 3.18514 47.2524 3.53476 48.2576 4.0155L47.3398 6.47378C45.5699 5.68713 43.9856 5.2938 42.5871 5.2938C40.8827 5.2938 39.6153 5.84009 38.785 6.93266C37.9765 8.02523 37.5722 9.59853 37.5722 11.6526V16.5691Z" fill="black"/>
                        <path d="M60.1982 11.2265C59.5863 11.2265 58.8652 11.3794 58.0349 11.6853C57.2264 11.9913 56.2431 12.614 55.0849 13.5536V25.2551H52.3972V1H55.0849V11.1937C56.2212 10.2322 57.2482 9.57668 58.166 9.22706C59.0838 8.87744 59.9797 8.70262 60.8537 8.70262C62.3615 8.70262 63.5087 9.18335 64.2953 10.1448C65.1038 11.0844 65.5081 12.4283 65.5081 14.1764V25.2551H62.8203V14.5697C62.8203 12.3409 61.9463 11.2265 60.1982 11.2265Z" fill="black"/>
                        <path d="M82.8894 24.3045C81.9061 24.7853 80.9228 25.113 79.9395 25.2878C78.9562 25.4845 78.0493 25.5828 77.219 25.5828C74.8809 25.5828 73.1328 24.9164 71.9746 23.5834C70.8384 22.2505 70.2702 20.4259 70.2702 18.1097V16.143C70.2702 13.8923 70.8384 12.0896 71.9746 10.7348C73.1328 9.38002 74.7607 8.70262 76.8584 8.70262C77.9729 8.70262 78.9889 8.93206 79.9067 9.39094C80.8463 9.82797 81.5893 10.5054 82.1355 11.4231C82.7037 12.319 82.9878 13.4772 82.9878 14.8975C82.9878 15.8153 82.8566 16.8641 82.5944 18.0441H72.9252V18.1097C72.9252 19.7704 73.2639 21.0268 73.9413 21.879C74.6405 22.7312 75.7549 23.1573 77.2845 23.1573C77.9838 23.1573 78.7486 23.0699 79.5789 22.8951C80.4311 22.7203 81.2615 22.4472 82.07 22.0757L82.8894 24.3045ZM76.8584 11.0626C75.591 11.0626 74.6296 11.4778 73.974 12.3081C73.3404 13.1166 72.9907 14.2638 72.9252 15.7497H80.2673C80.3328 15.3564 80.3656 14.9849 80.3656 14.6353C80.3656 13.4116 80.016 12.5157 79.3167 11.9476C78.6393 11.3576 77.8199 11.0626 76.8584 11.0626Z" fill="black"/>
                        <path d="M89.5401 16.1758V18.1097C89.5401 19.7704 89.846 21.0268 90.4579 21.879C91.0697 22.7094 92.0421 23.1246 93.375 23.1246C94.6861 23.1246 96.0955 22.7859 97.6033 22.1085L98.4227 24.3701C96.6309 25.1786 94.8937 25.5828 93.2111 25.5828C91.1134 25.5828 89.5182 24.9164 88.4257 23.5834C87.3331 22.2505 86.7868 20.4259 86.7868 18.1097V16.1758C86.7868 13.8596 87.3331 12.035 88.4257 10.702C89.5182 9.36909 91.1134 8.70262 93.2111 8.70262C93.9978 8.70262 94.8063 8.81188 95.6366 9.03039C96.4888 9.22706 97.3411 9.51112 98.1933 9.8826L97.3738 12.177C96.6527 11.8711 95.9535 11.6307 95.2761 11.4559C94.6206 11.2811 93.9869 11.1937 93.375 11.1937C92.0421 11.1937 91.0697 11.6198 90.4579 12.472C89.846 13.3023 89.5401 14.537 89.5401 16.1758Z" fill="black"/>
                        <path d="M112.36 25.2551L107.804 17.7491C107.389 18.1643 106.952 18.5904 106.493 19.0274C106.034 19.4644 105.553 19.9015 105.051 20.3385V25.2551H102.363V1H105.051V17.323C106.471 15.9464 107.728 14.6025 108.82 13.2914C109.935 11.9803 110.951 10.56 111.868 9.03039H114.95C114.163 10.3415 113.354 11.5542 112.524 12.6687C111.716 13.7612 110.798 14.8756 109.771 16.0119L115.605 25.2551H112.36Z" fill="black"/>
                        <path d="M131.791 22.6001V25.2551H119.598V2.96663H122.449V22.6001H131.791Z" fill="black"/>
                        <path d="M138.44 5.06436H135.424V2.04887H138.44V5.06436ZM138.276 25.2551H135.588V9.03039H138.276V25.2551Z" fill="black"/>
                        <path d="M148.037 23.1901C150.222 23.1901 151.314 22.4472 151.314 20.9613C151.314 20.3276 151.118 19.825 150.724 19.4535C150.331 19.082 149.61 18.7652 148.561 18.503L146.758 18.0441C145.426 17.7163 144.431 17.1482 143.776 16.3397C143.12 15.5093 142.792 14.526 142.792 13.3898C142.792 12.5594 142.978 11.7946 143.35 11.0954C143.721 10.3743 144.311 9.79519 145.12 9.35816C145.928 8.92114 146.977 8.70262 148.266 8.70262C149.097 8.70262 149.938 8.80095 150.79 8.99762C151.664 9.17243 152.549 9.47835 153.445 9.91538L152.593 12.177C150.998 11.4559 149.555 11.0954 148.266 11.0954C146.365 11.0954 145.415 11.8055 145.415 13.2259C145.415 13.7722 145.589 14.242 145.939 14.6353C146.289 15.0286 146.944 15.3455 147.906 15.5858L149.708 16.0447C151.151 16.3943 152.21 16.9625 152.888 17.7491C153.565 18.5358 153.904 19.5519 153.904 20.7974C153.904 21.6933 153.707 22.5127 153.314 23.2557C152.942 23.9768 152.331 24.5449 151.478 24.9601C150.648 25.3753 149.523 25.5828 148.102 25.5828C147.163 25.5828 146.223 25.4845 145.283 25.2878C144.366 25.0912 143.415 24.7743 142.432 24.3373L143.153 22.1085C144.093 22.4799 144.945 22.7531 145.71 22.9279C146.474 23.1027 147.25 23.1901 148.037 23.1901Z" fill="black"/>
                        <path d="M167.102 24.6651C165.878 25.2769 164.578 25.5828 163.202 25.5828C162.022 25.5828 161.093 25.3425 160.415 24.8617C159.76 24.381 159.29 23.7364 159.006 22.9279C158.744 22.1194 158.613 21.2235 158.613 20.2402V11.3903H155.794V9.03039H158.613V4.50715H161.3V9.03039H166.61V11.3903H161.3V20.1418C161.3 21.2781 161.486 22.0648 161.858 22.5018C162.251 22.917 162.852 23.1246 163.66 23.1246C164.054 23.1246 164.458 23.0809 164.873 22.9934C165.31 22.8842 165.78 22.7094 166.283 22.469L167.102 24.6651Z" fill="black"/>
                        <path d="M167.176 11.6124H161.223V17.7394H158.598V11.6124H152.915V9.0915H158.598V2.21948H161.223V9.0915H167.176V11.6124Z" fill="#00CD5E"/>
                        <path d="M20.4234 9.11487L11.9498 19.0473L8.31821 15.0743" stroke="#00CD5E" stroke-width="3" stroke-linecap="round" stroke-linejoin="round"/>
                        <path d="M23.4497 2.16211H5.29192C3.62054 2.16211 2.26562 3.49618 2.26562 5.14185V23.0203C2.26562 24.6659 3.62054 26 5.29192 26H23.4497C25.1211 26 26.476 24.6659 26.476 23.0203V5.14185C26.476 3.49618 25.1211 2.16211 23.4497 2.16211Z" stroke="black" stroke-width="3" stroke-linejoin="round"/>
                    </svg>