<svg width="16" height="19" viewBox="0 0 16 19" fill="none" xmlns="http://www.w3.org/2000/svg">
<path d="M15.2147 13.3998C14.1652 12.1154 13.4244 11.4615 13.4244 7.92055C13.4244 4.67788 11.7685 3.52262 10.4056 2.96154C10.2246 2.88716 10.0542 2.71635 9.99901 2.53041C9.75995 1.71678 9.08976 1 8.19889 1C7.30803 1 6.63743 1.71719 6.40082 2.53123C6.34565 2.71921 6.17524 2.88716 5.99421 2.96154C4.62971 3.52344 2.97548 4.67462 2.97548 7.92055C2.97344 11.4615 2.23255 12.1154 1.18313 13.3998C0.748318 13.9318 1.12918 14.7308 1.88969 14.7308H14.5122C15.2686 14.7308 15.647 13.9294 15.2147 13.3998Z" stroke="black" stroke-linecap="round" stroke-linejoin="round"/>
<path d="M10.8143 14.7308V15.3846C10.8143 16.0783 10.5387 16.7435 10.0482 17.234C9.55776 17.7245 8.89252 18 8.19888 18C7.50524 18 6.84 17.7245 6.34952 17.234C5.85904 16.7435 5.5835 16.0783 5.5835 15.3846V14.7308" stroke="black" stroke-linecap="round" stroke-linejoin="round"/>
</svg>
