<svg width="31" height="31" viewBox="0 0 31 31" xmlns="http://www.w3.org/2000/svg">
  <path d="M0 30.2253V3.87515H3.875V1.55017C3.87508 0.69407 4.56899 0.000155189 5.42501 0.000155189H8.52497C9.38099 0.000155189 10.0749 0.69407 10.075 1.55002V3.87515H20.925L20.9249 1.55002C20.9249 0.693915 21.6189 0 22.475 0H25.575C26.431 0 27.125 0.693915 27.125 1.55002V3.87515H31V30.2253H0ZM2.32498 27.9003H28.6749V10.0752H2.32498V27.9003ZM3.875 22.4752H8.52497V26.3502H3.875V22.4752ZM10.075 22.4752H14.725V26.3502H10.075V22.4752ZM16.275 22.4752H20.925V26.3502H16.275V22.4752ZM22.475 22.4752H27.125V26.3502H22.475V22.4752ZM3.875 17.0502H8.52497V20.9252H3.875V17.0502ZM10.075 17.0502H14.725V20.9252H10.075V17.0502ZM16.275 17.0502H20.925V20.9252H16.275V17.0502ZM22.475 17.0502H27.125V20.9252H22.475V17.0502ZM10.075 11.6253H14.725V15.5003H10.075V11.6253ZM16.275 11.6253H20.925V15.5003H16.275V11.6253ZM22.475 11.6253H27.125V15.5003H22.475V11.6253ZM23.6374 1.55017C22.9954 1.55017 22.475 2.07066 22.475 2.71274V5.03772C22.475 5.67972 22.9954 6.20022 23.6374 6.20022H24.4125C25.0545 6.20022 25.575 5.67972 25.575 5.03772V2.71274C25.575 2.07066 25.0545 1.55017 24.4125 1.55017H23.6374ZM6.58751 1.55017C5.94543 1.55017 5.42501 2.07067 5.42501 2.71266V5.03765C5.42501 5.67972 5.94543 6.20022 6.58751 6.20022H7.36248C8.00455 6.20022 8.52497 5.67972 8.52497 5.03765V2.71266C8.52497 2.07067 8.00455 1.55017 7.36248 1.55017H6.58751Z" fill="#3D84C5"/>
</svg>