<svg width="16" height="19" viewBox="0 0 16 19" fill="none" xmlns="http://www.w3.org/2000/svg">
<path d="M10.6162 4.77779C10.6162 4.77779 11.6619 4.26263 7.86869 4.26263C6.51019 4.26263 5.1822 4.66548 4.05265 5.42022C2.9231 6.17496 2.04273 7.2477 1.52285 8.50279C1.00298 9.75788 0.866953 11.1389 1.13198 12.4713C1.39701 13.8037 2.05119 15.0276 3.01179 15.9882C3.9724 16.9488 5.19628 17.603 6.52867 17.868C7.86107 18.1331 9.24213 17.997 10.4972 17.4772C11.7523 16.9573 12.825 16.0769 13.5798 14.9474C14.3345 13.8178 14.7374 12.4898 14.7374 11.1313" stroke="black" stroke-miterlimit="10" stroke-linecap="round"/>
<path d="M7.86871 1L11.3031 4.43434L7.86871 7.86869" stroke="black" stroke-linecap="round" stroke-linejoin="round"/>
</svg>
