<svg width="40" height="41" viewBox="0 0 40 41" fill="none" xmlns="http://www.w3.org/2000/svg">
<path d="M20.5263 14.9941C19.3911 14.882 18.249 15.1235 17.2564 15.6855C16.2638 16.2476 15.4692 17.1027 14.9813 18.1338C14.4935 19.1649 14.3363 20.3216 14.5312 21.4455C14.7261 22.5694 15.2637 23.6056 16.0703 24.4122C16.8769 25.2188 17.9131 25.7564 19.037 25.9513C20.1609 26.1463 21.3176 25.9891 22.3487 25.5012C23.3798 25.0134 24.235 24.2187 24.797 23.2261C25.3591 22.2335 25.6006 21.0914 25.4884 19.9562C25.3606 18.6837 24.7968 17.4945 23.8924 16.5901C22.9881 15.6858 21.7988 15.1219 20.5263 14.9941ZM33.848 20.5C33.8445 21.1014 33.8003 21.7018 33.7158 22.2973L37.6241 25.3627C37.7943 25.5038 37.909 25.7006 37.9477 25.9183C37.9865 26.1359 37.9469 26.3602 37.8359 26.5514L34.1385 32.9486C34.0262 33.1379 33.8507 33.2815 33.6429 33.3541C33.4351 33.4267 33.2083 33.4236 33.0026 33.3454L29.121 31.7824C28.907 31.6972 28.6751 31.6664 28.4462 31.6928C28.2174 31.7192 27.9986 31.802 27.8096 31.9337C27.2172 32.3416 26.5947 32.704 25.9475 33.0178C25.744 33.1167 25.568 33.2641 25.435 33.4472C25.3021 33.6302 25.2162 33.8432 25.185 34.0672L24.6032 38.2073C24.565 38.4259 24.452 38.6245 24.2836 38.7691C24.1152 38.9137 23.9018 38.9953 23.6799 39H16.2851C16.0669 38.9962 15.8564 38.9182 15.6884 38.7788C15.5205 38.6394 15.405 38.447 15.361 38.2332L14.7801 34.0992C14.7474 33.8727 14.6593 33.6577 14.5236 33.4734C14.3879 33.2891 14.2087 33.1412 14.002 33.0428C13.3556 32.7308 12.7352 32.3674 12.1468 31.9562C11.9585 31.8251 11.7404 31.743 11.5124 31.7172C11.2844 31.6913 11.0535 31.7227 10.8406 31.8083L6.95992 33.3705C6.75427 33.4488 6.52757 33.452 6.31978 33.3796C6.11198 33.3071 5.9364 33.1637 5.82399 32.9745L2.12658 26.5773C2.01542 26.3862 1.97569 26.1618 2.01448 25.9442C2.05326 25.7265 2.16804 25.5296 2.33838 25.3887L5.64158 22.7952C5.82255 22.6516 5.96478 22.465 6.05535 22.2524C6.14593 22.0399 6.182 21.808 6.16027 21.578C6.12915 21.2175 6.11013 20.8579 6.11013 20.4974C6.11013 20.1369 6.12828 19.7825 6.16027 19.4298C6.17962 19.2011 6.14179 18.9713 6.05019 18.7609C5.95858 18.5505 5.81609 18.3663 5.63553 18.2247L2.33406 15.6312C2.16649 15.4895 2.05412 15.2934 2.01666 15.0771C1.9792 14.8609 2.01903 14.6384 2.12917 14.4486L5.82658 8.0514C5.93886 7.86207 6.11438 7.71845 6.32219 7.64586C6.53 7.57327 6.75676 7.57637 6.96251 7.6546L10.8441 9.21759C11.0581 9.30282 11.29 9.33361 11.5188 9.30721C11.7477 9.2808 11.9665 9.19803 12.1555 9.06631C12.7479 8.65838 13.3704 8.29598 14.0176 7.98224C14.2211 7.88334 14.3971 7.73587 14.53 7.55283C14.663 7.3698 14.7489 7.15684 14.7801 6.93276L15.3619 2.79273C15.4001 2.57409 15.513 2.3755 15.6814 2.23091C15.8498 2.08632 16.0632 2.0047 16.2851 2H23.6799C23.8982 2.00378 24.1086 2.08178 24.2766 2.22116C24.4446 2.36055 24.5601 2.55299 24.6041 2.7668L25.185 6.90077C25.2176 7.12732 25.3057 7.34231 25.4415 7.5266C25.5772 7.7109 25.7564 7.85881 25.963 7.95717C26.6095 8.26921 27.2299 8.6326 27.8182 9.04383C28.0066 9.1749 28.2246 9.25704 28.4527 9.28284C28.6807 9.30865 28.9116 9.27731 29.1245 9.19166L33.0052 7.62953C33.2108 7.55122 33.4375 7.54799 33.6453 7.62042C33.8531 7.69285 34.0287 7.83629 34.1411 8.02547L37.8385 14.4227C37.9497 14.6138 37.9894 14.8382 37.9506 15.0558C37.9118 15.2735 37.797 15.4704 37.6267 15.6113L34.3235 18.2048C34.1417 18.348 33.9987 18.5343 33.9073 18.7469C33.816 18.9595 33.7793 19.1916 33.8005 19.422C33.829 19.7799 33.848 20.1395 33.848 20.5Z" stroke="white" stroke-width="3" stroke-linecap="round" stroke-linejoin="round"/>
</svg>