<svg width="19" height="23" viewBox="0 0 19 23" fill="none" xmlns="http://www.w3.org/2000/svg">
<path d="M18.2083 3.16667H13.4583V1.97917C13.4583 1.45426 13.2498 0.95085 12.8786 0.579684C12.5075 0.208519 12.0041 0 11.4792 0H7.52083C6.99593 0 6.49252 0.208519 6.12135 0.579684C5.75019 0.95085 5.54167 1.45426 5.54167 1.97917V3.16667H0.791667C0.581704 3.16667 0.38034 3.25007 0.231874 3.39854C0.0834077 3.54701 0 3.74837 0 3.95833C0 4.1683 0.0834077 4.36966 0.231874 4.51813C0.38034 4.66659 0.581704 4.75 0.791667 4.75H1.63281L2.57292 19.8372C2.64318 21.1657 3.66146 22.1667 4.94792 22.1667H14.0521C15.345 22.1667 16.343 21.188 16.4271 19.8411L17.3672 4.75H18.2083C18.4183 4.75 18.6197 4.66659 18.7681 4.51813C18.9166 4.36966 19 4.1683 19 3.95833C19 3.74837 18.9166 3.54701 18.7681 3.39854C18.6197 3.25007 18.4183 3.16667 18.2083 3.16667ZM6.36154 19H6.33333C6.12817 19.0001 5.93096 18.9206 5.78328 18.7782C5.6356 18.6358 5.54898 18.4416 5.54167 18.2365L5.14583 7.1532C5.13835 6.94324 5.21459 6.73891 5.35776 6.58515C5.50094 6.43139 5.69933 6.34081 5.9093 6.33333C6.11926 6.32585 6.3236 6.40209 6.47735 6.54526C6.63111 6.68844 6.72169 6.88683 6.72917 7.0968L7.125 18.1801C7.12877 18.2841 7.11201 18.3878 7.07567 18.4853C7.03933 18.5828 6.98413 18.6722 6.91322 18.7483C6.84231 18.8245 6.75709 18.8859 6.66243 18.9291C6.56777 18.9723 6.46552 18.9964 6.36154 19ZM10.2917 18.2083C10.2917 18.4183 10.2083 18.6197 10.0598 18.7681C9.91133 18.9166 9.70996 19 9.5 19C9.29004 19 9.08867 18.9166 8.94021 18.7681C8.79174 18.6197 8.70833 18.4183 8.70833 18.2083V7.125C8.70833 6.91504 8.79174 6.71367 8.94021 6.56521C9.08867 6.41674 9.29004 6.33333 9.5 6.33333C9.70996 6.33333 9.91133 6.41674 10.0598 6.56521C10.2083 6.71367 10.2917 6.91504 10.2917 7.125V18.2083ZM11.875 3.16667H7.125V1.97917C7.1244 1.92702 7.13423 1.87528 7.15392 1.82698C7.1736 1.77869 7.20273 1.73482 7.23961 1.69794C7.27648 1.66106 7.32036 1.63193 7.36865 1.61225C7.41695 1.59257 7.46869 1.58274 7.52083 1.58333H11.4792C11.5313 1.58274 11.5831 1.59257 11.6313 1.61225C11.6796 1.63193 11.7235 1.66106 11.7604 1.69794C11.7973 1.73482 11.8264 1.77869 11.8461 1.82698C11.8658 1.87528 11.8756 1.92702 11.875 1.97917V3.16667ZM13.4583 18.2365C13.451 18.4416 13.3644 18.6358 13.2167 18.7782C13.069 18.9206 12.8718 19.0001 12.6667 19H12.638C12.534 18.9963 12.4318 18.9722 12.3372 18.9289C12.2426 18.8857 12.1575 18.8243 12.0866 18.7482C12.0157 18.672 11.9606 18.5827 11.9243 18.4852C11.888 18.3877 11.8712 18.2841 11.875 18.1801L12.2708 7.0968C12.2745 6.99283 12.2987 6.89062 12.3419 6.79599C12.3851 6.70135 12.4465 6.61616 12.5227 6.54526C12.5988 6.47437 12.6881 6.41917 12.7856 6.3828C12.8831 6.34644 12.9867 6.32963 13.0907 6.33333C13.1947 6.33704 13.2969 6.36118 13.3915 6.40439C13.4861 6.44759 13.5713 6.50902 13.6422 6.58515C13.7131 6.66128 13.7683 6.75063 13.8047 6.8481C13.8411 6.94557 13.8579 7.04924 13.8542 7.1532L13.4583 18.2365Z" fill="#FF8CA3"/>
</svg>
